<?xml version="1.0" standalone="no"?> <!DOCTYPE svg PUBLIC "-//W3C//DTD SVG 1.0//EN" "http://www.w3.org/TR/2001/REC-SVG-20010904/DTD/svg10.dtd" > <svg xmlns="http://www.w3.org/2000/svg" width="100%" height="100%">
<defs >
<font id="rockserifnormal" horiz-adv-x="544" ><font-face
    font-family="Rock Serif"
    units-per-em="1000"
    panose-1="2 7 5 0 0 0 0 0 0 0"
    ascent="771"
    descent="-229"
    alphabetic="0" />
<missing-glyph horiz-adv-x="305" d="M65 -210V710H240V-210H65Z" />
<glyph unicode=" " glyph-name="space" horiz-adv-x="240" />
<glyph unicode="!" glyph-name="exclam" horiz-adv-x="312" d="M148 184L84 532V542L116 732H196L228 542V532L164 184H148ZM184 -8T156 -8T108 11T87 59T107 107T156 126T204 107T225 59T205 11Z" />
<glyph unicode="&quot;" glyph-name="quotedbl" horiz-adv-x="350" d="M91 458L39 721L44 732H154L159 721L107 458H91ZM243 458L191 721L196 732H306L311 721L259 458H243Z" />
<glyph unicode="#" glyph-name="numbersign" horiz-adv-x="666" d="M132 48L148 201H57L65 269H156L173 429H78L85 496H180L196 643H272L256 496H442L458 643H534L518 496H612L605 429H511L494 269H592L584 201H486L470 48H394L410 201H224L208 48H132ZM232 269H418L435
429H249L232 269Z" />
<glyph unicode="$" glyph-name="dollar" horiz-adv-x="585" d="M265 -54V-45L271 33Q229 35 172 46T95 56Q69 53 50 34L40 36L65 189L74 187Q89 155 144 134T271 111V319Q232 328 209 334T154 354T105 384T74 426T61 487Q61 564 116 611T270 666L265 737V746H335V737L329
666Q352 665 397 659T461 654Q487 656 507 675L516 674L492 520L482 522Q456 587 329 590V394Q368 386 391 380T447 360T498 330T529 288T543 227Q543 150 487 96T329 34L335 -45V-54H265ZM163 498Q163 461 190 441T271 407V587Q163 574 163 498ZM441 213Q441 251
412 271T329 306V114Q382 122 411 149T441 213Z" />
<glyph unicode="%" glyph-name="percent" horiz-adv-x="983" d="M235 304Q151 304 100 361T48 507Q48 595 100 652T235 710Q319 710 370 653T422 507Q422 419 370 362T235 304ZM187 376T235 376T312 412T341 507T312 602T235 638T158 602T129 507T158 412ZM224
0L222 5L678 700H757L759 695L303 0H224ZM748 -10Q664 -10 613 47T561 193Q561 281 613 338T748 396Q832 396 883 339T935 193Q935 105 883 48T748 -10ZM700 62T748 62T825 98T854 193T825 288T748 324T671 288T642 193T671 98Z" />
<glyph unicode="&amp;" glyph-name="ampersand" horiz-adv-x="756" d="M271 -10Q165 -10 102 45T38 184Q38 251 80 306T188 387Q146 429 129 462T112 535Q112 618 170 664T326 710Q360 710 400 703T456 695Q485 695 506 715L516 712L475 545L465 547Q441 625 332
625Q272 625 243 602T213 538Q213 509 228 487T280 430L510 207Q540 263 540 336Q540 394 515 432V441H729V435L710 356H632Q623 223 572 147L662 61Q685 38 727 9V0H590L510 77Q415 -10 271 -10ZM287 75Q382 75 450 135L239 338Q140 277 140 196Q140 140 182 108T287
75Z" />
<glyph unicode="&apos;" glyph-name="quotesingle" horiz-adv-x="198" d="M91 458L39 721L44 732H154L159 721L107 458H91Z" />
<glyph unicode="(" glyph-name="parenleft" horiz-adv-x="350" d="M58 132T58 285T131 567T322 751L342 731Q152 567 152 285T342 -161L322 -181Q204 -126 131 3Z" />
<glyph unicode=")" glyph-name="parenright" horiz-adv-x="350" d="M292 438T292 285T219 3T28 -181L8 -161Q198 3 198 285T8 731L28 751Q146 696 219 567Z" />
<glyph unicode="*" glyph-name="asterisk" horiz-adv-x="537" d="M160 302L114 335L143 401L149 408L253 494L118 502L110 505L48 541L65 595L136 588L145 585L259 512L225 643V652L240 722H297L312 652V643L278 512L392 585L401 588L472 595L489 541L427 505L419
502L284 494L388 408L394 401L423 335L377 302L323 350L318 357L269 483L219 357L214 350L160 302Z" />
<glyph unicode="+" glyph-name="plus" horiz-adv-x="520" d="M219 64V258H24V334H219V528H301V334H496V258H301V64H219Z" />
<glyph unicode="," glyph-name="comma" horiz-adv-x="252" d="M129 125Q156 125 175 106T194 43Q194 -11 165 -60T86 -136L60 -116V-112Q121 -65 121 -1Q94 -1 76 16T58 59Q58 87 78 106T129 125Z" />
<glyph unicode="-" glyph-name="hyphen" horiz-adv-x="346" d="M41 251V257L62 341H305V335L284 251H41Z" />
<glyph unicode="." glyph-name="period" horiz-adv-x="252" d="M153 -8T126 -8T79 11T58 58T78 104T126 123T173 105T193 58T173 11Z" />
<glyph unicode="/" glyph-name="slash" horiz-adv-x="379" d="M-30 -172L-32 -166L290 742H365L367 736L45 -172H-30Z" />
<glyph unicode="0" glyph-name="zero" horiz-adv-x="675" d="M338 -10Q206 -10 131 87T56 350Q56 512 132 611T338 710Q470 710 544 613T619 350Q619 188 543 89T338 -10ZM253 75T338 75T470 149T518 350Q518 478 471 551T338 625Q252 625 205 552T157 350Q157
223 205 149Z" />
<glyph unicode="1" glyph-name="one" horiz-adv-x="415" d="M124 0V9L157 35Q169 44 171 52T174 80V521Q174 557 164 571T123 585H79L76 596L218 700H272V80Q272 66 272 61T277 48T289 35L322 9V0H124Z" />
<glyph unicode="2" glyph-name="two" horiz-adv-x="557" d="M27 0L23 10Q101 89 149 141T251 261T331 386T357 492Q357 554 321 588T221 622Q139 622 78 565L24 633Q109 710 234 710Q346 710 403 651T461 503Q461 468 452 432T420 356T379 288T323 215T268 152T207
85H413Q450 85 468 91T511 121L518 118L493 0H27Z" />
<glyph unicode="3" glyph-name="three" horiz-adv-x="533" d="M223 -10Q96 -10 21 62L75 131Q131 75 224 75Q301 75 340 112T380 212Q380 276 337 312T202 348Q181 348 166 345L161 351L336 615H140Q103 615 85 609T42 579L35 582L60 700H478L485 690L305 414Q377
406 429 349T482 210Q482 108 411 49T223 -10Z" />
<glyph unicode="4" glyph-name="four" horiz-adv-x="647" d="M334 0V9L367 35Q379 44 381 52T384 80V167H22L19 176L312 700H406L410 691L164 252H384V419L473 490H482V252H527Q564 252 582 258T625 288L632 285L607 167H482V80Q482 66 482 61T487 48T499 35L532
9V0H334Z" />
<glyph unicode="5" glyph-name="five" horiz-adv-x="587" d="M242 -10Q112 -10 35 64L89 133Q147 75 240 75Q318 75 363 114T409 219Q409 360 222 360Q157 360 96 344L88 350L130 700H402Q439 700 457 706T500 736L507 733L482 615H212L191 431Q232 441 281 441Q384
441 447 381T511 221Q511 113 437 52T242 -10Z" />
<glyph unicode="6" glyph-name="six" horiz-adv-x="618" d="M420 -10T311 -10T129 56T55 239Q55 363 131 495T323 700H460V690Q374 652 301 573T190 403Q250 459 339 459Q440 459 503 395T567 230Q567 122 494 56ZM312 72Q380 72 423 114T466 225T423 336T312
380Q243 380 200 337T157 225T200 115T312 72Z" />
<glyph unicode="7" glyph-name="seven" horiz-adv-x="514" d="M505 700V691Q307 370 257 0H147Q180 183 230 328T373 615H121Q84 615 66 609T23 579L16 582L41 700H505Z" />
<glyph unicode="8" glyph-name="eight" horiz-adv-x="615" d="M307 -10Q183 -10 115 45T47 193Q47 315 176 368Q67 422 67 525Q67 608 130 659T310 710Q425 710 486 660T548 525Q548 423 438 368Q568 315 568 194Q568 103 500 47T307 -10ZM308 407Q445 407 445
517Q445 628 308 628Q170 628 170 517Q170 407 308 407ZM230 73T308 73T425 107T465 202Q465 263 426 297T308 332T190 297T150 202T190 108Z" />
<glyph unicode="9" glyph-name="nine" horiz-adv-x="618" d="M158 0V10Q244 48 317 127T428 297Q368 241 279 241Q178 241 115 305T51 470Q51 578 124 644T307 710T489 644T563 461Q563 336 488 205T297 0H158ZM306 320Q375 320 418 363T461 475T418 585T306 628Q238
628 195 586T152 475T195 364T306 320Z" />
<glyph unicode=":" glyph-name="colon" horiz-adv-x="252" d="M153 349T126 349T79 368T58 415T78 461T126 480T173 462T193 415T173 368ZM153 -8T126 -8T79 11T58 58T78 104T126 123T173 105T193 58T173 11Z" />
<glyph unicode=";" glyph-name="semicolon" horiz-adv-x="252" d="M153 349T126 349T79 368T58 415T78 461T126 480T173 462T193 415T173 368ZM129 125Q156 125 175 106T194 43Q194 -11 165 -60T86 -136L60 -116V-112Q121 -65 121 -1Q94 -1 76 16T58 59Q58 87
78 106T129 125Z" />
<glyph unicode="&lt;" glyph-name="less" horiz-adv-x="520" d="M408 43L32 292V300L408 549L453 484L174 298V296L453 110L408 43Z" />
<glyph unicode="=" glyph-name="equal" horiz-adv-x="520" d="M45 358V438H475V358H45ZM45 150V230H475V150H45Z" />
<glyph unicode="&gt;" glyph-name="greater" horiz-adv-x="520" d="M112 43L67 108L346 294V296L67 482L112 549L488 300V292L112 43Z" />
<glyph unicode="?" glyph-name="question" horiz-adv-x="472" d="M452 566Q452 493 412 445T277 350Q237 330 216 306T186 240L175 184H160Q106 253 108 302Q110 337 134 363T221 423Q237 431 253 439T283 456T309 475T330 497T344 523T349 555Q349 599 316 624T222
649Q112 649 86 571L76 569L32 737L42 740Q63 720 95 720Q110 720 154 727T233 735Q334 735 393 694T452 566ZM204 -8T177 -8T130 11T109 58T129 104T177 123T224 105T244 58T224 11Z" />
<glyph unicode="@" glyph-name="at" horiz-adv-x="882" d="M395 -149Q236 -149 142 -50T48 216Q48 413 173 543T493 674Q579 674 646 647T753 574T813 469T834 343Q834 211 764 132T604 53Q524 53 511 117Q489 87 453 70T376 52Q313 52 277 94T240 215Q240 319
300 398T454 478Q541 478 574 427L632 468H644L578 165Q566 105 614 105Q669 105 713 169T757 341Q757 466 693 539T492 612Q327 612 227 501T126 215Q126 67 203 -18T420 -103Q545 -103 624 -55L636 -71Q599 -107 535 -128T395 -149ZM403 113Q446 113 477 143T521
228L553 380Q525 417 470 417Q398 417 357 357T315 218Q315 113 403 113Z" />
<glyph unicode="A" glyph-name="A" horiz-adv-x="696" d="M-8 0V9Q32 30 58 90L344 731H352L638 90Q664 30 704 9V0H522V8L551 32Q556 37 553 43L521 120H174L141 43Q139 37 142 34L174 8V0H-8ZM207 204H486L348 533H347L207 204Z" />
<glyph unicode="B" glyph-name="B" horiz-adv-x="684" d="M48 0V9L81 35Q93 44 95 52T98 80V620Q98 634 98 639T93 652T81 665L48 691V700H380Q605 700 605 523Q605 401 490 364Q555 347 592 303T630 194Q630 103 564 52T365 0H48ZM196 405H371Q440 405 471 430T502
511Q502 559 470 587T371 616H196V405ZM196 84H366Q527 84 527 202Q527 321 366 321H196V84Z" />
<glyph unicode="C" glyph-name="C" horiz-adv-x="631" d="M377 -10Q231 -10 137 86T42 349Q42 516 136 613T379 710Q410 710 458 703T522 695Q550 695 571 715L581 712L542 544L532 546Q505 625 386 625Q279 625 212 551T145 351Q145 226 209 151T382 75T551 148L605
77Q515 -10 377 -10Z" />
<glyph unicode="D" glyph-name="D" horiz-adv-x="703" d="M48 0V9L81 35Q93 44 95 52T98 80V620Q98 634 98 639T93 652T81 665L48 691V700H256Q445 700 550 612T655 352Q655 178 550 89T256 0H48ZM196 85H249Q552 85 552 352Q552 615 249 615H196V85Z" />
<glyph unicode="E" glyph-name="E" horiz-adv-x="601" d="M48 0V9L81 35Q93 44 95 52T98 80V620Q98 634 98 639T93 652T81 665L48 691V700H532L557 582L550 579Q525 602 507 608T452 615H196V404H492V398L473 319H196V85H452Q489 85 507 91T550 121L557 118L532 0H48Z" />
<glyph unicode="F" glyph-name="F" horiz-adv-x="589" d="M48 0V9L81 35Q93 44 95 52T98 80V620Q98 634 98 639T93 652T81 665L48 691V700H532L557 582L550 579Q525 602 507 608T452 615H196V387H459V381L440 302H196V80Q196 66 196 61T201 48T213 35L246 9V0H48Z" />
<glyph unicode="G" glyph-name="G" horiz-adv-x="718" d="M390 -10Q239 -10 141 85T42 347Q42 516 141 613T387 710Q421 710 473 701T542 692Q570 692 591 712L601 709L562 542L552 544Q538 584 495 605T396 626Q288 626 217 554T145 350Q145 221 213 148T395
75Q485 75 542 118V247Q542 266 540 274T525 292L492 318V327H690V318L657 292Q645 283 643 275T640 247V86Q540 -10 390 -10Z" />
<glyph unicode="H" glyph-name="H" horiz-adv-x="758" d="M48 0V9L81 35Q93 44 95 52T98 80V620Q98 634 98 639T93 652T81 665L48 691V700H246V691L213 665Q201 656 199 648T196 620V404H562V620Q562 634 562 639T557 652T545 665L512 691V700H710V691L677 665Q665
656 663 648T660 620V80Q660 66 660 61T665 48T677 35L710 9V0H512V9L545 35Q557 44 559 52T562 80V318H196V80Q196 66 196 61T201 48T213 35L246 9V0H48Z" />
<glyph unicode="I" glyph-name="I" horiz-adv-x="294" d="M48 0V9L81 35Q93 44 95 52T98 80V620Q98 634 98 639T93 652T81 665L48 691V700H246V691L213 665Q201 656 199 648T196 620V80Q196 66 196 61T201 48T213 35L246 9V0H48Z" />
<glyph unicode="J" glyph-name="J" horiz-adv-x="475" d="M182 -10Q72 -10 10 56L66 123Q109 77 174 77Q300 77 300 226V615H100L81 694V700H448V691L415 665Q403 656 401 648T398 620V223Q398 109 341 50T182 -10Z" />
<glyph unicode="K" glyph-name="K" horiz-adv-x="711" d="M48 0V9L81 35Q93 44 95 52T98 80V620Q98 634 98 639T93 652T81 665L48 691V700H246V691L213 665Q201 656 199 648T196 620V345L460 641Q473 656 461 668L438 692V700H637V691Q620 680 603 664T569 629T532
589L368 410Q503 323 627 104Q648 67 664 48T705 9V0H566Q532 92 456 192T307 341L196 218V80Q196 66 196 61T201 48T213 35L246 9V0H48Z" />
<glyph unicode="L" glyph-name="L" horiz-adv-x="533" d="M48 0V9L81 35Q93 44 95 52T98 80V620Q98 634 98 639T93 652T81 665L48 691V700H246V691L213 665Q201 656 199 648T196 620V85H400Q437 85 455 91T498 121L505 118L480 0H48Z" />
<glyph unicode="M" glyph-name="M" horiz-adv-x="897" d="M41 0V9L74 35Q86 44 88 52T91 80V728H101L449 322L796 728H806V80Q806 66 806 61T811 48T823 35L856 9V0H662V9L695 35Q707 44 709 52T712 80V488L449 184L185 489V80Q185 66 185 61T190 48T202 35L235 9V0H41Z" />
<glyph unicode="N" glyph-name="N" horiz-adv-x="777" d="M41 0V9L74 35Q86 44 88 52T91 80V729H101L592 202V620Q592 634 592 639T587 652T575 665L542 691V700H736V691L703 665Q691 656 689 648T686 620V-20H676L185 503V80Q185 66 185 61T190 48T202 35L235 9V0H41Z" />
<glyph unicode="O" glyph-name="O" horiz-adv-x="762" d="M381 -10Q232 -10 137 86T42 350Q42 513 137 611T381 710Q530 710 625 614T720 350Q720 187 625 89T381 -10ZM275 75T381 75T552 150T617 350T552 550T381 626T210 551T145 350T210 150Z" />
<glyph unicode="P" glyph-name="P" horiz-adv-x="630" d="M48 0V9L81 35Q93 44 95 52T98 80V620Q98 634 98 639T93 652T81 665L48 691V700H331Q464 700 530 644T596 485Q596 379 530 321T331 263H196V80Q196 66 196 61T201 48T213 35L246 9V0H48ZM196 348H332Q493
348 493 483Q493 615 332 615H196V348Z" />
<glyph unicode="Q" glyph-name="Q" horiz-adv-x="762" d="M557 -150L480 -40Q458 -10 418 -10H389Q234 -10 138 86T42 350Q42 513 137 611T381 710Q530 710 625 614T720 350Q720 236 671 151T538 25Q557 12 571 -6L654 -104Q678 -132 699 -141V-150H557ZM275 75T381
75T552 150T617 350T552 550T381 626T210 551T145 350T210 150Z" />
<glyph unicode="R" glyph-name="R" horiz-adv-x="665" d="M48 0V9L81 35Q93 44 95 52T98 80V620Q98 634 98 639T93 652T81 665L48 691V700H331Q463 700 529 645T596 491Q596 414 550 360T422 286Q535 231 593 80Q605 48 613 35T641 9V0H507Q492 90 438 161T313
261H196V80Q196 66 196 61T201 48T213 35L246 9V0H48ZM196 345H332Q493 345 493 483Q493 615 332 615H196V345Z" />
<glyph unicode="S" glyph-name="S" horiz-adv-x="598" d="M304 -10Q244 -10 175 10T89 30Q61 30 40 10L30 13L70 184L80 182Q97 138 158 107T295 76Q371 76 411 109T452 194Q452 226 435 249T392 283T334 304T272 320Q235 329 210 337T154 361T104 396T73 445T60
513Q60 604 126 657T313 710Q352 710 403 703T470 695Q499 695 520 715L530 712L490 544L480 546Q453 625 322 625Q241 625 202 597T162 519Q162 501 167 487T181 462T203 442T231 427T263 416T297 407T333 398Q371 389 396 381T454 357T506 322T540 273T554 203Q554
112 489 51T304 -10Z" />
<glyph unicode="T" glyph-name="T" horiz-adv-x="616" d="M209 0V9L242 35Q254 44 256 52T259 80V615H133Q96 615 78 609T35 579L28 582L53 700H563L588 582L581 579Q556 602 538 608T483 615H357V80Q357 66 357 61T362 48T374 35L407 9V0H209Z" />
<glyph unicode="U" glyph-name="U" horiz-adv-x="717" d="M480 -10T358 -10T162 61T88 261V620Q88 634 88 639T83 652T71 665L38 691V700H236V691L203 665Q191 656 189 648T186 620V279Q186 181 232 129T359 77Q441 77 486 129T531 279V620Q531 634 531 639T526
652T514 665L481 691V700H679V691L646 665Q634 656 632 648T629 620V261Q629 133 555 62Z" />
<glyph unicode="V" glyph-name="V" horiz-adv-x="716" d="M354 -31L68 611Q42 669 2 691V700H204V692L170 661Q157 650 164 633L358 167H359L554 632Q561 649 548 660L513 692V700H714V691Q674 669 648 611L363 -31H354Z" />
<glyph unicode="W" glyph-name="W" horiz-adv-x="1037" d="M315 -31L76 610Q54 667 10 691V700H207V692L173 664Q161 654 167 635L324 217H328L473 605V606Q458 645 447 661T417 691V700H620V691Q601 677 590 661T565 608L711 217H715L872 635Q878 654 866 664L832
692V700H1027V691Q983 667 961 610L722 -31H712L518 484L325 -31H315Z" />
<glyph unicode="X" glyph-name="X" horiz-adv-x="664" d="M14 0V9Q55 35 107 111L279 357L152 548Q74 665 37 691V700H167L339 442L481 644Q493 661 482 671L459 692V700H646V691Q605 665 553 589L393 362L522 170Q611 36 650 9V0H518L333 276L179 56Q167 39 178
29L201 8V0H14Z" />
<glyph unicode="Y" glyph-name="Y" horiz-adv-x="610" d="M213 0V9L246 35Q258 44 260 52T263 80V261L60 609Q27 666 -4 691V700H200V692L167 665Q145 647 161 620L313 347H314L459 620Q474 647 452 665L419 692V700H614V691Q584 668 550 608L361 263V80Q361 66
361 61T366 48T378 35L411 9V0H213Z" />
<glyph unicode="Z" glyph-name="Z" horiz-adv-x="638" d="M45 0L40 9L423 615H152Q115 615 97 609T54 579L47 582L72 700H581L585 691L203 85H491Q528 85 546 91T589 121L596 118L571 0H45Z" />
<glyph unicode="[" glyph-name="bracketleft" horiz-adv-x="410" d="M130 -172V742H328V710L217 680V-110L328 -140V-172H130Z" />
<glyph unicode="\" glyph-name="backslash" horiz-adv-x="379" d="M334 -172L13 736L15 742H90L411 -166L409 -172H334Z" />
<glyph unicode="]" glyph-name="bracketright" horiz-adv-x="410" d="M82 -172V-140L193 -110V680L82 710V742H280V-172H82Z" />
<glyph unicode="^" glyph-name="asciicircum" horiz-adv-x="540" d="M48 301V307L265 710H273L492 307V301H403L271 558H269L137 301H48Z" />
<glyph unicode="_" glyph-name="underscore" horiz-adv-x="392" d="M0 -76V0H392V-76H0Z" />
<glyph unicode="`" glyph-name="grave" horiz-adv-x="440" d="M273 523L103 603L153 680H162L295 543L282 523H273Z" />
<glyph unicode="a" glyph-name="a" horiz-adv-x="504" d="M192 -10Q124 -10 80 26T36 124Q36 187 86 224T235 266Q285 269 313 281T342 328Q342 401 233 401Q151 401 106 358L62 418Q127 478 244 478Q432 478 432 303V80Q432 66 432 61T437 48T449 35L482 9V0H346V71Q300
-10 192 -10ZM214 59Q271 59 306 97T342 183V230Q322 210 251 205Q129 196 129 128Q129 97 152 78T214 59Z" />
<glyph unicode="b" glyph-name="b" horiz-adv-x="587" d="M331 -10Q229 -10 171 68V0H34V9L67 35Q79 44 81 52T84 80V677Q84 696 82 704T67 722L34 748V757H174V402Q235 478 339 478Q436 478 493 413T551 234Q551 125 489 58T331 -10ZM247 66T313 66T417 111T456
234T418 357T313 403T209 358T170 234T208 111Z" />
<glyph unicode="c" glyph-name="c" horiz-adv-x="451" d="M260 -10Q158 -10 96 58T34 234Q34 348 101 413T267 478Q295 478 327 471T370 464Q391 464 414 482L421 481L389 342L382 343Q340 405 274 405Q211 405 170 362T129 235T168 110T269 67Q308 67 339 81T383
113L427 49Q370 -10 260 -10Z" />
<glyph unicode="d" glyph-name="d" horiz-adv-x="587" d="M248 -10Q151 -10 94 55T36 234Q36 344 98 411T256 478Q355 478 413 403V677Q413 696 411 704T396 722L363 748V757H503V80Q503 66 503 61T508 48T520 35L553 9V0H416V69Q354 -10 248 -10ZM274 66Q340
66 379 111T418 234T379 357T274 403Q209 403 170 358T131 234T170 111T274 66Z" />
<glyph unicode="e" glyph-name="e" horiz-adv-x="507" d="M264 -10Q157 -10 96 55T34 226Q34 338 96 408T265 478Q369 478 422 412T475 240Q475 222 472 207H127Q130 144 170 106T274 67Q359 67 407 117L454 52Q382 -10 264 -10ZM261 407Q205 407 171 369T129
273H385Q380 333 348 370T261 407Z" />
<glyph unicode="f" glyph-name="f" horiz-adv-x="344" d="M67 0V9L100 35Q112 44 114 52T117 80V394H34V468H117V585Q117 672 157 719T272 767Q293 767 316 763T350 758Q374 758 390 773L398 771L361 648L353 650Q339 693 287 693Q246 693 227 666T207 577V468H337V462L320
394H207V80Q207 66 207 61T212 48T224 35L257 9V0H67Z" />
<glyph unicode="g" glyph-name="g" horiz-adv-x="509" d="M243 -225Q133 -225 70 -195T6 -106Q6 -66 33 -38T98 4V7L67 43V52L129 160Q47 209 47 304Q47 382 105 430T250 478Q295 478 340 461V468Q340 510 370 540T450 570Q482 570 510 553L483 477Q469 489 448
489Q396 489 384 439Q453 386 453 304Q453 226 395 178T250 129Q205 129 165 143V91Q165 69 171 62T204 54H338Q425 54 469 22T513 -70Q513 -141 445 -183T243 -225ZM250 196Q299 196 330 226T362 304Q362 350 330 381T250 412T170 381T138 304T170 227T250 196ZM254
-162Q344 -162 381 -138T419 -80Q419 -22 323 -22H189Q140 -22 118 -39T95 -84Q95 -117 131 -139T254 -162Z" />
<glyph unicode="h" glyph-name="h" horiz-adv-x="569" d="M34 0V9L67 35Q79 44 81 52T84 80V677Q84 696 82 704T67 722L34 748V757H174V401Q226 478 326 478Q412 478 454 427T497 288V80Q497 66 497 61T502 48T514 35L547 9V0H357V9L390 35Q402 44 404 52T407
80V265Q407 399 297 399Q236 399 205 359T174 255V80Q174 66 174 61T179 48T191 35L224 9V0H34Z" />
<glyph unicode="i" glyph-name="i" horiz-adv-x="265" d="M161 580T136 580T94 597T76 640T93 682T136 699T179 683T197 640T179 597ZM41 0V9L74 35Q86 44 88 52T91 80V388Q91 402 91 407T86 420T74 433L41 459V468H181V80Q181 66 181 61T186 48T198 35L231 9V0H41Z" />
<glyph unicode="j" glyph-name="j" horiz-adv-x="251" d="M154 580T129 580T87 597T69 640T86 682T129 699T172 683T190 640T172 597ZM22 -225Q-29 -225 -56 -207L-39 -128Q-19 -145 8 -145Q50 -146 67 -121T84 -43V388Q84 402 84 407T79 420T67 433L34 459V468H174V-53Q174
-133 137 -179T22 -225Z" />
<glyph unicode="k" glyph-name="k" horiz-adv-x="527" d="M34 0V9L67 35Q79 44 81 52T84 80V677Q84 696 82 704T67 722L34 748V757H174V213L354 415Q368 431 355 442L335 459V468H503V459Q475 437 402 357L315 263Q389 196 442 107Q485 34 521 9V0H396Q379 49
341 105T257 200L174 109V80Q174 66 174 61T179 48T191 35L224 9V0H34Z" />
<glyph unicode="l" glyph-name="l" horiz-adv-x="258" d="M34 0V9L67 35Q79 44 81 52T84 80V677Q84 696 82 704T67 722L34 748V757H174V80Q174 66 174 61T179 48T191 35L224 9V0H34Z" />
<glyph unicode="m" glyph-name="m" horiz-adv-x="877" d="M41 0V9L74 35Q86 44 88 52T91 80V388Q91 402 91 407T86 420T74 433L41 459V468H177V383Q229 478 329 478Q432 478 473 389Q498 429 541 453T640 478Q720 478 762 427T805 288V80Q805 66 805 61T810 48T822
35L855 9V0H665V9L698 35Q710 44 712 52T715 80V265Q715 326 690 362T611 399Q554 399 524 359T493 255V80Q493 66 493 61T498 48T510 35L543 9V0H353V9L386 35Q398 44 400 52T403 80V265Q403 399 299 399Q242 399 212 359T181 255V80Q181 66 181 61T186 48T198
35L231 9V0H41Z" />
<glyph unicode="n" glyph-name="n" horiz-adv-x="576" d="M41 0V9L74 35Q86 44 88 52T91 80V388Q91 402 91 407T86 420T74 433L41 459V468H177V400Q226 478 333 478Q419 478 461 427T504 288V80Q504 66 504 61T509 48T521 35L554 9V0H364V9L397 35Q409 44 411
52T414 80V265Q414 399 304 399Q243 399 212 359T181 255V80Q181 66 181 61T186 48T198 35L231 9V0H41Z" />
<glyph unicode="o" glyph-name="o" d="M272 -10Q165 -10 100 57T34 234Q34 341 101 409T272 478Q379 478 444 412T510 234Q510 127 443 59T272 -10ZM272 65Q337 65 376 111T415 234T376 357T272 404Q208 404 169 357T129 234T168 112T272 65Z" />
<glyph unicode="p" glyph-name="p" horiz-adv-x="587" d="M34 -215V-206L67 -180Q79 -171 81 -163T84 -135V388Q84 402 84 407T79 420T67 433L34 459V468H171V398Q231 478 339 478Q436 478 493 413T551 234Q551 125 489 58T331 -10Q231 -10 174 64V-135Q174 -154
176 -162T191 -180L224 -206V-215H34ZM247 66T313 66T417 111T456 234T418 357T313 403T209 358T170 234T208 111Z" />
<glyph unicode="q" glyph-name="q" horiz-adv-x="588" d="M364 -215V-206L397 -180Q409 -171 411 -163T414 -135V65Q352 -10 248 -10Q151 -10 94 55T36 234Q36 344 98 411T256 478Q358 478 417 399V468H554V459L521 433Q509 424 507 416T504 388V-135Q504 -154
506 -162T521 -180L554 -206V-215H364ZM274 66Q340 66 379 111T418 234T379 357T274 403Q209 403 170 358T131 234T170 111T274 66Z" />
<glyph unicode="r" glyph-name="r" horiz-adv-x="398" d="M41 0V9L74 35Q86 44 88 52T91 80V388Q91 402 91 407T86 420T74 433L41 459V468H177V380Q223 478 318 478Q366 478 390 460L359 364Q334 391 284 391T208 351T181 236V80Q181 66 181 61T186 48T198 35L231
9V0H41Z" />
<glyph unicode="s" glyph-name="s" horiz-adv-x="465" d="M226 -10Q110 -10 36 45L76 113Q135 64 233 64Q277 64 305 78T333 123Q333 141 324 153T293 175T255 189T204 202Q172 210 148 219T101 244T66 284T53 341Q53 407 101 442T234 478Q268 478 305 472T352
466Q374 466 397 484L404 483L372 345L365 346Q338 407 238 407Q197 407 170 390T142 344Q142 332 147 322T160 305T181 293T207 283T238 275T272 267Q423 232 423 127Q423 62 370 26T226 -10Z" />
<glyph unicode="t" glyph-name="t" horiz-adv-x="352" d="M228 -10Q95 -10 95 130V394H21V468H95V584L179 646H185V468H315V464L298 394H185V150Q185 109 198 89T245 68Q284 68 308 95L336 24Q304 -10 228 -10Z" />
<glyph unicode="u" glyph-name="u" horiz-adv-x="569" d="M243 -10Q157 -10 115 41T72 181V388Q72 402 72 407T67 420T55 433L22 459V468H162V204Q162 70 272 70Q333 70 364 110T395 213V388Q395 402 395 407T390 420T378 433L345 459V468H485V80Q485 66 485 61T490
48T502 35L535 9V0H399V69Q347 -10 243 -10Z" />
<glyph unicode="v" glyph-name="v" horiz-adv-x="527" d="M260 -19L59 374Q41 408 30 424T-6 459V468H170V460L143 437Q131 425 139 410L264 148H266L389 409Q396 425 385 436L358 459V468H533V459Q509 440 498 424T468 374L268 -19H260Z" />
<glyph unicode="w" glyph-name="w" horiz-adv-x="728" d="M226 -19L54 374Q39 409 29 424T-6 459V468H165V459L138 436Q127 425 134 409L229 177H231L362 483H368L498 177H500L596 409Q603 425 592 436L565 459V468H734V459Q710 440 700 425T674 374L502 -19H495L365
292H363L233 -19H226Z" />
<glyph unicode="x" glyph-name="x" horiz-adv-x="519" d="M8 0V9Q67 54 109 111L211 245L131 349Q57 444 33 459V468H141L263 311L344 415Q357 432 345 442L325 459V468H501V459Q448 418 400 357L314 245L392 145Q448 73 472 45T511 9V0H402L263 179L165 53Q152
36 164 26L184 9V0H8Z" />
<glyph unicode="y" glyph-name="y" horiz-adv-x="521" d="M94 -225Q42 -225 15 -206L35 -128Q56 -147 87 -147Q132 -147 153 -125T200 -45L219 -2L54 374Q40 406 29 423T-6 459V468H167V459L140 436Q129 426 136 409L261 110H263L389 409Q396 425 385 436L358
459V468H527V459Q490 430 467 374L276 -71Q243 -149 202 -187T94 -225Z" />
<glyph unicode="z" glyph-name="z" horiz-adv-x="464" d="M23 0L20 8L285 395H125Q91 395 64 374L41 356L35 358L53 468H428L431 460L166 74H356Q390 74 417 95L440 113L446 111L428 0H23Z" />
<glyph unicode="{" glyph-name="braceleft" horiz-adv-x="400" d="M115 76Q115 100 118 139T121 190Q121 232 105 250T46 269V301Q88 301 104 319T121 380Q121 391 118 430T115 494Q115 563 134 611T193 687T277 729T385 751L392 722Q297 693 248 642T199 487Q199
467 201 432T204 384Q204 358 201 342T183 309T141 286V284Q180 275 192 251T204 186Q204 173 202 138T199 83Q199 -21 248 -72T392 -152L385 -181Q322 -173 278 -159T194 -117T135 -41T115 76Z" />
<glyph unicode="|" glyph-name="bar" horiz-adv-x="314" d="M118 -172V742H196V-172H118Z" />
<glyph unicode="}" glyph-name="braceright" horiz-adv-x="400" d="M285 76Q285 7 266 -41T207 -117T123 -159T15 -181L8 -152Q103 -123 152 -72T201 83Q201 103 199 138T196 186Q196 212 199 228T217 261T259 284V286Q220 295 208 319T196 384Q196 397 198 432T201
487Q201 591 152 642T8 722L15 751Q78 743 122 729T206 687T265 611T285 494Q285 470 282 431T279 380Q279 338 295 320T354 301V269Q312 269 296 251T279 190Q279 179 282 140T285 76Z" />
<glyph unicode="~" glyph-name="asciitilde" horiz-adv-x="458" d="M306 238Q271 238 216 256T141 275Q97 275 74 243L59 221L32 229L39 262Q50 311 78 332T152 354Q187 354 242 336T317 317Q361 317 384 349L399 371L426 363L419 330Q408 281 380 260T306 238Z" />
</font>
</defs>
</svg>
