<?xml version="1.0" standalone="no"?> <!DOCTYPE svg PUBLIC "-//W3C//DTD SVG 1.0//EN" "http://www.w3.org/TR/2001/REC-SVG-20010904/DTD/svg10.dtd" > <svg xmlns="http://www.w3.org/2000/svg" width="100%" height="100%">
<defs >
<font id="rocksansnormal" horiz-adv-x="539" ><font-face
    font-family="Rock Sans"
    units-per-em="1000"
    panose-1="2 11 5 0 0 0 0 0 0 0"
    ascent="771"
    descent="-229"
    alphabetic="0" />
<missing-glyph horiz-adv-x="305" d="M65 -210V710H240V-210H65Z" />
<glyph unicode=" " glyph-name="space" horiz-adv-x="240" />
<glyph unicode="!" glyph-name="exclam" horiz-adv-x="312" d="M142 184L84 720L94 732H219L228 720L170 184H142ZM184 -8T156 -8T108 11T87 59T107 107T156 126T204 107T225 59T205 11Z" />
<glyph unicode="&quot;" glyph-name="quotedbl" horiz-adv-x="350" d="M83 472L47 721L52 732H146L151 721L115 472H83ZM235 472L199 721L204 732H298L303 721L267 472H235Z" />
<glyph unicode="#" glyph-name="numbersign" horiz-adv-x="666" d="M132 48L148 201H57L65 269H156L173 429H78L85 496H180L196 643H272L256 496H442L458 643H534L518 496H612L605 429H511L494 269H592L584 201H486L470 48H394L410 201H224L208 48H132ZM232 269H418L435
429H249L232 269Z" />
<glyph unicode="$" glyph-name="dollar" horiz-adv-x="588" d="M265 -54V33Q120 38 43 87L80 170Q109 147 159 130T269 111V319Q230 328 206 334T151 355T103 385T74 427T61 488Q61 564 115 610T265 665V746H335V665Q397 660 447 638T523 582L470 514Q415 579
331 588V394Q372 385 395 379T451 359T500 329T530 286T543 225Q543 151 491 99T335 35V-54H265ZM163 498Q163 461 190 441T269 408V588Q217 582 190 558T163 498ZM441 176T441 213T413 270T331 305V114Q385 123 413 149Z" />
<glyph unicode="%" glyph-name="percent" horiz-adv-x="983" d="M235 304Q151 304 100 361T48 507Q48 595 100 652T235 710Q319 710 370 653T422 507Q422 419 370 362T235 304ZM187 376T235 376T312 412T341 507T312 602T235 638T158 602T129 507T158 412ZM224
0L222 5L678 700H757L759 695L303 0H224ZM748 -10Q664 -10 613 47T561 193Q561 281 613 338T748 396Q832 396 883 339T935 193Q935 105 883 48T748 -10ZM700 62T748 62T825 98T854 193T825 288T748 324T671 288T642 193T671 98Z" />
<glyph unicode="&amp;" glyph-name="ampersand" horiz-adv-x="754" d="M271 -10Q165 -10 102 45T38 184Q38 250 79 304T183 384Q138 429 120 462T102 534Q102 616 162 663T321 710Q379 710 429 694T505 647L449 574Q401 625 322 625Q262 625 233 601T203 537Q203
517 213 498T234 467T272 430L507 202Q540 261 540 347Q540 400 524 432V441H710V356H632Q623 220 569 142L707 9V0H582L506 73Q410 -10 271 -10ZM287 75Q378 75 445 131L234 335Q140 275 140 196Q140 140 182 108T287 75Z" />
<glyph unicode="&apos;" glyph-name="quotesingle" horiz-adv-x="198" d="M83 472L47 721L52 732H146L151 721L115 472H83Z" />
<glyph unicode="(" glyph-name="parenleft" horiz-adv-x="360" d="M58 286Q58 447 130 564T322 751L352 721Q261 647 207 538T152 285T206 33T352 -151L322 -181Q203 -111 131 6T58 286Z" />
<glyph unicode=")" glyph-name="parenright" horiz-adv-x="360" d="M302 286Q302 124 230 7T38 -181L8 -151Q99 -77 153 32T208 285T154 537T8 721L38 751Q157 681 229 564T302 286Z" />
<glyph unicode="*" glyph-name="asterisk" horiz-adv-x="537" d="M181 288L94 351L93 359L245 492L44 510L40 517L73 619L81 623L253 520L209 716L215 722H322L328 716L283 520L456 623L464 619L497 517L493 510L292 492L444 359L443 351L356 288L348 289L268
474L189 289L181 288Z" />
<glyph unicode="+" glyph-name="plus" horiz-adv-x="520" d="M219 64V258H24V334H219V528H301V334H496V258H301V64H219Z" />
<glyph unicode="," glyph-name="comma" horiz-adv-x="252" d="M129 124Q156 124 175 105T194 42Q194 -14 164 -67T90 -146L52 -117V-113Q125 -57 125 -2Q97 -2 78 14T58 58Q58 87 78 105T129 124Z" />
<glyph unicode="-" glyph-name="hyphen" horiz-adv-x="346" d="M58 251V341H290V251H58Z" />
<glyph unicode="." glyph-name="period" horiz-adv-x="252" d="M153 -10T126 -10T79 9T58 56T78 102T126 121T173 103T193 56T173 9Z" />
<glyph unicode="/" glyph-name="slash" horiz-adv-x="379" d="M-30 -172L-32 -166L290 742H365L367 736L45 -172H-30Z" />
<glyph unicode="0" glyph-name="zero" horiz-adv-x="675" d="M338 -10Q206 -10 131 87T56 350Q56 512 132 611T338 710Q470 710 544 613T619 350Q619 188 543 89T338 -10ZM253 75T338 75T470 149T518 350Q518 478 471 551T338 625Q252 625 205 552T157 350Q157
223 205 149Z" />
<glyph unicode="1" glyph-name="one" horiz-adv-x="409" d="M174 0V613H70V622L90 700H272V0H174Z" />
<glyph unicode="2" glyph-name="two" horiz-adv-x="557" d="M27 0L23 10Q101 89 149 141T251 261T331 386T357 492Q357 554 321 588T221 622Q139 622 78 565L24 633Q109 710 234 710Q346 710 403 651T461 503Q461 468 452 432T420 356T379 288T323 215T268 152T207
85H506V0H27Z" />
<glyph unicode="3" glyph-name="three" horiz-adv-x="533" d="M223 -10Q96 -10 21 62L75 131Q131 75 224 75Q301 75 340 112T380 212Q380 276 337 312T202 348Q181 348 166 345L161 351L336 615H47V700H478L485 690L305 414Q377 406 429 349T482 210Q482 108 411
49T223 -10Z" />
<glyph unicode="4" glyph-name="four" horiz-adv-x="647" d="M384 0V167H22L19 176L312 700H406L410 691L164 252H384V419L473 490H482V252H614V167H482V0H384Z" />
<glyph unicode="5" glyph-name="five" horiz-adv-x="587" d="M242 -10Q112 -10 35 64L89 133Q147 75 240 75Q318 75 363 114T409 219Q409 360 222 360Q157 360 96 344L88 350L130 700H488V615H212L191 431Q232 441 281 441Q384 441 447 381T511 221Q511 113 437
52T242 -10Z" />
<glyph unicode="6" glyph-name="six" horiz-adv-x="618" d="M420 -10T311 -10T129 56T55 239Q55 363 131 495T323 700H460V690Q374 652 301 573T190 403Q250 459 339 459Q440 459 503 395T567 230Q567 122 494 56ZM312 72Q380 72 423 114T466 225T423 336T312
380Q243 380 200 337T157 225T200 115T312 72Z" />
<glyph unicode="7" glyph-name="seven" horiz-adv-x="514" d="M107 0V9L375 615H29V700H505V691L207 0H107Z" />
<glyph unicode="8" glyph-name="eight" horiz-adv-x="615" d="M307 -10Q183 -10 115 45T47 193Q47 315 176 368Q67 422 67 525Q67 608 130 659T310 710Q425 710 486 660T548 525Q548 423 438 368Q568 315 568 194Q568 103 500 47T307 -10ZM308 407Q445 407 445
517Q445 628 308 628Q170 628 170 517Q170 407 308 407ZM230 73T308 73T425 107T465 202Q465 263 426 297T308 332T190 297T150 202T190 108Z" />
<glyph unicode="9" glyph-name="nine" horiz-adv-x="618" d="M158 0V10Q244 48 317 127T428 297Q368 241 279 241Q178 241 115 305T51 470Q51 578 124 644T307 710T489 644T563 461Q563 336 488 205T297 0H158ZM306 320Q375 320 418 363T461 475T418 585T306 628Q238
628 195 586T152 475T195 364T306 320Z" />
<glyph unicode=":" glyph-name="colon" horiz-adv-x="252" d="M153 347T126 347T79 366T58 413T78 459T126 478T173 460T193 413T173 366ZM153 -10T126 -10T79 9T58 56T78 102T126 121T173 103T193 56T173 9Z" />
<glyph unicode=";" glyph-name="semicolon" horiz-adv-x="252" d="M153 347T126 347T79 366T58 413T78 459T126 478T173 460T193 413T173 366ZM129 124Q156 124 175 105T194 42Q194 -14 164 -67T90 -146L52 -117V-113Q125 -57 125 -2Q97 -2 78 14T58 58Q58 87
78 105T129 124Z" />
<glyph unicode="&lt;" glyph-name="less" horiz-adv-x="520" d="M408 43L32 292V300L408 549L453 484L174 298V296L453 110L408 43Z" />
<glyph unicode="=" glyph-name="equal" horiz-adv-x="520" d="M45 358V438H475V358H45ZM45 150V230H475V150H45Z" />
<glyph unicode="&gt;" glyph-name="greater" horiz-adv-x="520" d="M112 43L67 108L346 294V296L67 482L112 549L488 300V292L112 43Z" />
<glyph unicode="?" glyph-name="question" horiz-adv-x="466" d="M452 566Q452 493 412 445T277 350Q237 330 216 306T186 240L175 184H160Q106 253 108 302Q110 337 134 363T221 423Q237 431 253 439T283 456T309 475T330 497T344 523T349 555Q349 599 316 624T222
649Q131 649 70 600L33 690Q62 709 117 722T231 735Q333 735 392 694T452 566ZM204 -8T177 -8T130 11T109 58T129 104T177 123T224 105T244 58T224 11Z" />
<glyph unicode="@" glyph-name="at" horiz-adv-x="882" d="M395 -149Q236 -149 142 -50T48 216Q48 413 173 543T493 674Q579 674 646 647T753 574T813 469T834 343Q834 211 764 132T604 53Q524 53 511 117Q489 87 453 70T376 52Q313 52 277 94T240 215Q240 319
300 398T454 478Q541 478 574 427L632 468H644L578 165Q566 105 614 105Q669 105 713 169T757 341Q757 466 693 539T492 612Q327 612 227 501T126 215Q126 68 203 -15T420 -98Q534 -98 613 -51L631 -82Q596 -111 531 -130T395 -149ZM403 113Q446 113 477 143T521
228L553 380Q525 417 470 417Q398 417 357 357T315 218Q315 113 403 113Z" />
<glyph unicode="A" glyph-name="A" horiz-adv-x="676" d="M12 0V9L334 731H342L664 9V0H561L511 120H164L113 0H12ZM197 204H476L338 533H337L197 204Z" />
<glyph unicode="B" glyph-name="B" horiz-adv-x="677" d="M91 0V700H373Q598 700 598 523Q598 402 483 365V363Q548 346 585 302T623 194Q623 103 557 52T358 0H91ZM189 405H364Q433 405 464 430T495 511Q495 559 463 587T364 616H189V405ZM189 84H359Q520 84
520 202Q520 321 359 321H189V84Z" />
<glyph unicode="C" glyph-name="C" horiz-adv-x="646" d="M377 -10Q231 -10 137 86T42 349Q42 516 137 613T382 710Q551 710 616 587L547 530Q498 625 383 625Q276 625 211 551T145 351Q145 226 209 151T382 75T551 148L605 77Q515 -10 377 -10Z" />
<glyph unicode="D" glyph-name="D" horiz-adv-x="698" d="M91 0V700H249Q438 700 543 612T648 352Q648 178 543 89T249 0H91ZM189 85H242Q545 85 545 352Q545 615 242 615H189V85Z" />
<glyph unicode="E" glyph-name="E" horiz-adv-x="580" d="M91 0V700H528V615H189V404H476V319H189V85H528V0H91Z" />
<glyph unicode="F" glyph-name="F" horiz-adv-x="559" d="M91 0V700H529V615H189V387H443V302H189V0H91Z" />
<glyph unicode="G" glyph-name="G" horiz-adv-x="712" d="M390 -10Q239 -10 141 85T42 347Q42 516 142 613T391 710Q463 710 522 687T618 623L564 552Q502 625 393 625Q285 625 215 554T145 350Q145 221 213 148T395 75Q485 75 542 118V327H640V86Q540 -10 390 -10Z" />
<glyph unicode="H" glyph-name="H" horiz-adv-x="744" d="M91 0V700H189V404H555V700H653V0H555V318H189V0H91Z" />
<glyph unicode="I" glyph-name="I" horiz-adv-x="280" d="M91 0V700H189V0H91Z" />
<glyph unicode="J" glyph-name="J" horiz-adv-x="485" d="M185 -10Q75 -10 13 56L69 123Q112 77 177 77Q303 77 303 226V615H105V700H401V223Q401 109 344 50T185 -10Z" />
<glyph unicode="K" glyph-name="K" horiz-adv-x="680" d="M91 0V700H189V345L505 700H618V691L361 410Q454 350 533 241T668 9V0H559Q525 92 449 192T300 341L189 218V0H91Z" />
<glyph unicode="L" glyph-name="L" horiz-adv-x="504" d="M91 0V700H189V85H476V0H91Z" />
<glyph unicode="M" glyph-name="M" horiz-adv-x="897" d="M91 0V728H101L449 322L796 728H806V0H712V488L450 185H448L185 489V0H91Z" />
<glyph unicode="N" glyph-name="N" horiz-adv-x="777" d="M91 0V729H101L592 202V700H686V-20H676L185 503V0H91Z" />
<glyph unicode="O" glyph-name="O" horiz-adv-x="762" d="M381 -10Q232 -10 137 86T42 350Q42 513 137 611T381 710Q530 710 625 614T720 350Q720 187 625 89T381 -10ZM275 75T381 75T552 150T617 350T552 550T381 626T210 551T145 350T210 150Z" />
<glyph unicode="P" glyph-name="P" horiz-adv-x="623" d="M91 0V700H324Q457 700 523 644T589 485Q589 379 523 321T324 263H189V0H91ZM189 348H325Q486 348 486 483Q486 615 325 615H189V348Z" />
<glyph unicode="Q" glyph-name="Q" horiz-adv-x="762" d="M557 -150L480 -40Q458 -10 418 -10H389Q234 -10 138 86T42 350Q42 513 137 611T381 710Q530 710 625 614T720 350Q720 236 671 151T538 25Q557 12 571 -6L685 -141V-150H557ZM275 75T381 75T552 150T617
350T552 550T381 626T210 551T145 350T210 150Z" />
<glyph unicode="R" glyph-name="R" horiz-adv-x="656" d="M85 0V700H318Q450 700 516 645T583 491Q583 414 537 360T409 286Q547 219 602 9V0H494Q479 90 425 161T300 261H183V0H85ZM183 345H319Q480 345 480 483Q480 615 319 615H183V345Z" />
<glyph unicode="S" glyph-name="S" horiz-adv-x="596" d="M273 -10Q197 -10 132 7T30 51L71 138Q103 111 159 94T279 76Q364 76 407 109T450 193Q450 209 447 222T434 247T418 265T394 281T368 293T336 303T305 311T270 320Q224 332 192 344T127 377T76 431T58
510Q58 604 126 657T322 710Q390 710 445 692T529 641L481 565Q419 624 321 624Q239 624 200 597T160 520Q160 496 170 477T193 447T234 426T278 411T331 398Q379 387 411 375T479 342T533 285T552 203Q552 109 484 50T273 -10Z" />
<glyph unicode="T" glyph-name="T" horiz-adv-x="581" d="M241 0V615H26V700H555V615H339V0H241Z" />
<glyph unicode="U" glyph-name="U" horiz-adv-x="701" d="M472 -10T350 -10T154 61T80 261V700H178V279Q178 181 224 129T351 77Q433 77 478 129T523 279V700H621V261Q621 133 547 62Z" />
<glyph unicode="V" glyph-name="V" horiz-adv-x="676" d="M334 -31L12 691V700H116L338 167H339L562 700H664V691L343 -31H334Z" />
<glyph unicode="W" glyph-name="W" horiz-adv-x="980" d="M287 -31L18 691V700H115L295 224H299L485 730H494L682 224H686L867 700H962V691L693 -31H684L490 491L296 -31H287Z" />
<glyph unicode="X" glyph-name="X" horiz-adv-x="639" d="M22 0V9L261 354L31 691V700H142L321 440L501 700H608V691L377 357L617 9V0H505L318 272L130 0H22Z" />
<glyph unicode="Y" glyph-name="Y" horiz-adv-x="622" d="M263 0V261L12 691V700H116L313 347H315L510 700H610V691L361 261V0H263Z" />
<glyph unicode="Z" glyph-name="Z" horiz-adv-x="625" d="M43 0L38 9L421 615H60V700H579L583 691L201 85H579V0H43Z" />
<glyph unicode="[" glyph-name="bracketleft" horiz-adv-x="410" d="M130 -172V742H328V688L217 680V-110L328 -118V-172H130Z" />
<glyph unicode="\" glyph-name="backslash" horiz-adv-x="379" d="M334 -172L13 736L15 742H90L411 -166L409 -172H334Z" />
<glyph unicode="]" glyph-name="bracketright" horiz-adv-x="410" d="M82 -172V-121L193 -113V683L82 691V742H280V-172H82Z" />
<glyph unicode="^" glyph-name="asciicircum" horiz-adv-x="520" d="M38 301V307L255 710H263L482 307V301H393L261 558H259L127 301H38Z" />
<glyph unicode="_" glyph-name="underscore" horiz-adv-x="392" d="M0 -76V0H392V-76H0Z" />
<glyph unicode="`" glyph-name="grave" horiz-adv-x="440" d="M280 520L103 603L156 684L303 555L280 520Z" />
<glyph unicode="a" glyph-name="a" horiz-adv-x="506" d="M192 -10Q124 -10 80 26T36 124Q36 187 86 224T235 266Q285 269 313 281T342 328Q342 401 233 401Q151 401 106 358L62 418Q127 478 244 478Q432 478 432 303V60Q432 51 432 45T433 34T437 25T446 15L456
6V0H346V71Q300 -10 192 -10ZM214 59Q271 59 306 97T342 183V230Q322 210 251 205Q129 196 129 128Q129 97 152 78T214 59Z" />
<glyph unicode="b" glyph-name="b" horiz-adv-x="580" d="M324 -10Q222 -10 164 68V0H77V757H167V402Q228 478 332 478Q429 478 486 413T544 234Q544 125 482 58T324 -10ZM240 66T306 66T410 111T449 234T411 357T306 403T202 358T163 234T201 111Z" />
<glyph unicode="c" glyph-name="c" horiz-adv-x="454" d="M262 -10Q160 -10 98 58T36 234Q36 348 101 413T263 478Q389 478 437 385L380 335Q340 404 258 404Q205 404 168 362T131 235Q131 152 170 110T271 67Q310 67 341 81T385 113L433 53Q368 -10 262 -10Z" />
<glyph unicode="d" glyph-name="d" horiz-adv-x="580" d="M248 -10Q151 -10 94 55T36 234Q36 344 98 411T256 478Q355 478 413 403V757H503V0H416V69Q354 -10 248 -10ZM274 66Q340 66 379 111T418 234T379 357T274 403Q209 403 170 358T131 234T170 111T274 66Z" />
<glyph unicode="e" glyph-name="e" horiz-adv-x="511" d="M266 -10Q159 -10 98 55T36 226Q36 338 98 408T267 478Q371 478 424 412T477 240Q477 222 474 207H129Q132 144 172 106T276 67Q361 67 409 117L456 52Q384 -10 266 -10ZM263 407Q207 407 173 369T131
273H387Q382 333 350 370T263 407Z" />
<glyph unicode="f" glyph-name="f" horiz-adv-x="341" d="M115 0V394H32V468H115V577Q115 767 272 767Q341 767 390 732L351 663Q323 693 282 693T223 666T205 569V468H335V394H205V0H115Z" />
<glyph unicode="g" glyph-name="g" horiz-adv-x="509" d="M340 461Q340 507 370 538T450 570Q482 570 510 553L483 477Q469 489 448 489Q396 489 384 439Q453 386 453 304Q453 226 395 178T250 129Q206 129 170 142Q140 117 140 92Q140 54 218 54H338Q425 54 469
22T513 -70Q513 -141 445 -183T243 -225Q133 -225 70 -195T6 -106Q6 -66 33 -38T98 4V7L94 10Q90 12 86 16T76 26T67 42T64 64Q64 128 124 164Q47 213 47 304Q47 382 105 430T250 478Q295 478 340 461ZM250 196Q299 196 330 226T362 304Q362 350 330 381T250 412T170
381T138 304T170 227T250 196ZM254 -162Q344 -162 381 -138T419 -80Q419 -22 323 -22H189Q140 -22 118 -39T95 -84Q95 -117 131 -139T254 -162Z" />
<glyph unicode="h" glyph-name="h" horiz-adv-x="563" d="M77 0V757H167V401Q219 478 319 478Q405 478 447 427T490 288V0H400V265Q400 399 290 399Q229 399 198 359T167 255V0H77Z" />
<glyph unicode="i" glyph-name="i" horiz-adv-x="244" d="M147 580T122 580T80 597T62 640T79 682T122 699T165 683T183 640T165 597ZM77 0V468H167V0H77Z" />
<glyph unicode="j" glyph-name="j" horiz-adv-x="244" d="M147 580T122 580T80 597T62 640T79 682T122 699T165 683T183 640T165 597ZM15 -225Q-36 -225 -63 -207L-46 -128Q-26 -145 1 -145Q43 -146 60 -121T77 -43V468H167V-53Q167 -133 130 -179T15 -225Z" />
<glyph unicode="k" glyph-name="k" horiz-adv-x="519" d="M77 0V757H167V223L401 468H506V462L311 268Q371 215 421 143T496 6V0H398Q381 49 340 106T252 206L167 119V0H77Z" />
<glyph unicode="l" glyph-name="l" horiz-adv-x="244" d="M77 0V757H167V0H77Z" />
<glyph unicode="m" glyph-name="m" horiz-adv-x="864" d="M77 0V468H163V383Q215 478 315 478Q418 478 459 389Q484 429 527 453T626 478Q706 478 748 427T791 288V0H701V265Q701 326 676 362T597 399Q540 399 510 359T479 255V0H389V265Q389 399 285 399Q228
399 198 359T167 255V0H77Z" />
<glyph unicode="n" glyph-name="n" horiz-adv-x="563" d="M77 0V468H163V400Q212 478 319 478Q405 478 447 427T490 288V0H400V265Q400 399 290 399Q229 399 198 359T167 255V0H77Z" />
<glyph unicode="o" glyph-name="o" horiz-adv-x="548" d="M274 -10Q167 -10 102 57T36 234Q36 341 103 409T274 478Q381 478 446 412T512 234Q512 127 445 59T274 -10ZM274 65Q339 65 378 111T417 234T378 357T274 404Q210 404 171 357T131 234T170 112T274 65Z" />
<glyph unicode="p" glyph-name="p" horiz-adv-x="580" d="M77 -215V468H164V398Q224 478 332 478Q429 478 486 413T544 234Q544 125 482 58T324 -10Q224 -10 167 64V-215H77ZM240 66T306 66T410 111T449 234T411 357T306 403T202 358T163 234T201 111Z" />
<glyph unicode="q" glyph-name="q" horiz-adv-x="581" d="M414 -215V65Q352 -10 248 -10Q151 -10 94 55T36 234Q36 344 98 411T256 478Q358 478 417 399V468H504V-215H414ZM274 66Q340 66 379 111T418 234T379 357T274 403Q209 403 170 358T131 234T170 111T274 66Z" />
<glyph unicode="r" glyph-name="r" horiz-adv-x="384" d="M77 0V468H163V380Q209 478 304 478Q352 478 376 460L345 364Q320 391 270 391T194 351T167 236V0H77Z" />
<glyph unicode="s" glyph-name="s" horiz-adv-x="464" d="M226 -10Q110 -10 36 45L76 113Q135 64 233 64Q277 64 305 78T333 123Q333 141 324 153T293 175T255 189T204 202Q172 210 148 219T101 244T66 284T53 341Q53 407 102 442T240 478Q360 478 415 409L371
347Q323 408 239 408Q196 408 169 392T142 344Q142 332 147 322T160 305T181 293T207 283T238 275T272 267Q423 232 423 127Q423 62 370 26T226 -10Z" />
<glyph unicode="t" glyph-name="t" horiz-adv-x="351" d="M228 -10Q95 -10 95 130V394H21V468H95V584L179 646H185V468H308V394H185V150Q185 109 198 89T245 68Q284 68 308 95L336 24Q304 -10 228 -10Z" />
<glyph unicode="u" glyph-name="u" horiz-adv-x="563" d="M244 -10Q158 -10 116 41T73 181V468H163V204Q163 70 273 70Q334 70 365 110T396 213V468H486V0H400V69Q348 -10 244 -10Z" />
<glyph unicode="v" glyph-name="v" horiz-adv-x="488" d="M240 -19L8 462V468H108L244 153H246L382 468H480V462L248 -19H240Z" />
<glyph unicode="w" glyph-name="w" horiz-adv-x="716" d="M220 -19L9 462V468H102L223 171H225L356 483H362L492 171H494L616 468H707V462L496 -19H489L359 298H357L227 -19H220Z" />
<glyph unicode="x" glyph-name="x" horiz-adv-x="494" d="M16 0V6L195 245L33 462V468H131L247 309L363 468H461V462L298 245L478 6V0H380L247 181L114 0H16Z" />
<glyph unicode="y" glyph-name="y" horiz-adv-x="508" d="M92 -225Q40 -225 13 -206L33 -128Q54 -147 85 -147Q130 -147 150 -125T195 -45L213 -2L18 462V468H114L255 110H257L399 468H490V462L270 -71Q237 -150 198 -187T92 -225Z" />
<glyph unicode="z" glyph-name="z" horiz-adv-x="472" d="M27 0L24 8L289 395H47V468H432L435 460L170 74H442V0H27Z" />
<glyph unicode="{" glyph-name="braceleft" horiz-adv-x="400" d="M115 76Q115 100 118 139T121 190Q121 231 105 246T46 262V308Q89 308 105 323T121 380Q121 391 118 430T115 494Q115 563 135 612T193 690T277 732T385 751L392 712Q298 689 249 640T199 487Q199
467 201 432T204 384Q204 358 201 342T183 309T141 286V284Q180 275 192 251T204 186Q204 173 202 138T199 83Q199 29 213 -11T254 -76T314 -117T392 -145L385 -181Q324 -177 278 -163T193 -120T135 -43T115 76Z" />
<glyph unicode="|" glyph-name="bar" horiz-adv-x="314" d="M118 -172V742H196V-172H118Z" />
<glyph unicode="}" glyph-name="braceright" horiz-adv-x="400" d="M285 76Q285 7 265 -42T207 -120T123 -162T15 -181L8 -145Q54 -133 86 -118T145 -77T187 -11T201 83Q201 103 199 138T196 186Q196 212 199 228T217 261T259 284V286Q220 295 208 319T196 384Q196
397 198 432T201 487Q201 591 152 640T8 712L15 751Q76 747 122 733T207 690T265 613T285 494Q285 470 282 431T279 380Q279 339 295 324T354 308V262Q311 262 295 247T279 190Q279 179 282 140T285 76Z" />
<glyph unicode="~" glyph-name="asciitilde" horiz-adv-x="460" d="M313 225Q278 225 224 254T151 284Q108 284 84 219L34 232Q38 293 69 328T147 363Q182 363 236 334T309 304Q352 304 376 369L426 356Q422 295 391 260T313 225Z" />
</font>
</defs>
</svg>
